<?xml version="1.0" encoding="UTF-8"?>
<svg xmlns="http://www.w3.org/2000/svg" width="50px" height="50px"><path d="M25 1C11.22 1 0 10.88 0 23.19c0 6.04 2.77 11.47 7.22 15.5-.67 2.07-2.17 3.71-3.69 4.97-.82.67-1.6 1.25-2.22 1.81q-.47.4-.81.91c-.22.34-.42.84-.28 1.37l.12.41.35.22c1.29.74 2.89.87 4.62.75a29 29 0 005.47-1.04c3.6-.99 6.97-2.4 8.75-3.18 1.76.36 3.52.59 5.38.59 13.77 0 25-9.88 25-22.19S38.78 1 25 1m0 2c12.82 0 22.91 9.21 22.91 20.31s-10.18 20.19-23 20.19c-1.83 0-3.55-.18-5.28-.56l-.35-.1L19 43a69 69 0 01-8.75 3.16c-1.77.48-3.54.86-5.06.97-1.02.07-1.65-.18-2.35-.35l1.97-1.59c1.74-1.45 3.83-3.46 4.57-6.44l.15-.62-.5-.38C4.63 34.02 2 28.88 2 23.19 2 12.1 12.18 3 25 3m-1.19 9.81c-.3 0-.4.18-.4.38v2.62c0 .3.2.38.4.38h2.38c.3 0 .4-.18.4-.38v-2.62c0-.3-.2-.38-.4-.38Zm.1 7.28c-.3 0-.41.21-.41.41v13.41c0 .3.21.4.41.4v.1h2.28c.3 0 .4-.21.4-.41V20.5c0-.3-.2-.41-.4-.41Z"/></svg>