<?xml version="1.0" encoding="UTF-8"?>
<svg xmlns="http://www.w3.org/2000/svg" viewBox="0 0 48 48" fill-rule="evenodd" clip-rule="evenodd"><path fill="#00549d" d="M22.9 3.29a2.3 2.3 0 012.19 0l16.81 9.43c.68.38 1.1 1.08 1.1 1.85v18.87c0 .76-.42 1.47-1.1 1.85l-16.81 9.43c-.68.38-1.51.38-2.19 0L6.09 35.29A2.2 2.2 0 015 33.43V14.56c0-.76.42-1.47 1.1-1.85z"/><path fill="#0086d4" d="M5.3 34.4c-.26-.35-.3-.69-.3-1.14V14.5c0-.76.42-1.46 1.09-1.84l16.75-9.38a2.4 2.4 0 012.27.01l16.71 9.33q.4.22.66.58z"/><path fill="#fff" d="M24 10a14 14 0 110 28 14 14 0 010-28m0 7a7 7 0 11-.02 14.02A7 7 0 0124 17"/><path fill="#0075c0" d="M42.48 13.21c.52.48.51 1.21.51 1.78 0 3.79-.03 14.59.01 18.38 0 .4-.13.81-.32 1.13L23.59 24z"/><path fill="#fff" d="M31 21h2v6h-2zm7 0h2v6h-2z"/><path fill="#fff" d="M29 23h6v2h-6zm7 0h6v2h-6z"/></svg>