<?xml version="1.0" encoding="UTF-8"?>
<svg xmlns="http://www.w3.org/2000/svg" viewBox="0 0 48 48"><path fill="#536dfe" d="M39.25 10.18a36 36 0 00-8.96-2.78q-.1-.01-.14.07c-.39.69-.81 1.58-1.11 2.29a33 33 0 00-10.06 0c-.3-.72-.74-1.6-1.13-2.29q-.05-.08-.14-.07a36 36 0 00-9.02 2.83c-5.7 8.52-7.27 16.84-6.5 25.04q0 .06.06.1a37 37 0 0010.99 5.55q.1.03.15-.05 1.28-1.73 2.25-3.66.05-.12-.08-.19a23 23 0 01-3.43-1.64c-.09-.05-.09-.17-.01-.23l.68-.53q.07-.05.14-.02a26 26 0 0022.11 0q.08-.04.14.02l.68.54c.08.06.07.18-.01.23a23 23 0 01-3.43 1.63q-.12.06-.07.2 1 1.92 2.25 3.65.07.08.15.05a36 36 0 0011-5.55q.05-.04.06-.1c.92-9.49-1.54-17.73-6.5-25.04zM16.7 30.27c-2.17 0-3.95-1.99-3.95-4.43s1.75-4.43 3.95-4.43c2.22 0 3.99 2.01 3.95 4.43.01 2.44-1.74 4.43-3.95 4.43m14.62 0c-2.17 0-3.95-1.99-3.95-4.43s1.75-4.43 3.95-4.43c2.22 0 3.99 2.01 3.95 4.43.01 2.44-1.73 4.43-3.95 4.43"/></svg>