<?xml version="1.0" encoding="UTF-8"?>
<svg xmlns="http://www.w3.org/2000/svg" width="48px" height="48px"><circle cx="24" cy="24" r="20" fill="#66bb6a"/><path fill="#fff" d="M35.07 22.04v-.96h-1.82l-.8-.01a1.4 1.4 0 00-1.33.97v-.96h-2.04v6.22h2.04v-3.4c0-.62.5-1.12 1.12-1.12h.8v4.52h2.04v-3.4c0-.62.5-1.12 1.12-1.12h1.01v-1.7l-.8-.01a1.4 1.4 0 00-1.34.97m-14.51-.83-1.09 3.6-1.09-3.6h-2.04l2.21 6.22h1.84l2.21-6.22zm-8.33 0v-.41c0-.36.29-.66.66-.66h1.29v-1.71h-1.77c-1.22 0-2.22.99-2.22 2.22v.56H9v1.65h1.19v4.57h2.04v-4.57h1.94v4.57h2.04v-6.22zm13.19-.09h-.25a3 3 0 00-3.02 3.02v.34a3 3 0 003.02 3.02h.55c1.14 0 2.12-.71 2.52-1.71l-1.8-.53s-.21.62-.96.62c-.85 0-1.29-.46-1.35-.99l-.01-.12h4.32v-.64a3 3 0 00-3.02-3.01m-1.29 2.47c.03-.56.48-1.01 1.05-1.01h.19c.56 0 1.03.45 1.05 1.01z"/><circle cx="38.852" cy="26.305" r="1.268" fill="#263238"/></svg>