<?xml version="1.0" encoding="UTF-8"?>
<svg xmlns="http://www.w3.org/2000/svg" viewBox="0 0 64 64"><path fill="url(#KpzH_ttTMIjq8dhx1zD2pa)" d="M25.01 56.01 25 52.56v-1.55c-6.73.92-8.36-3.78-8.38-3.83-.93-2.37-2.21-3.04-2.27-3.07l-.12-.07c-.46-.32-1.69-1.16-1.34-2.26.32-1 1.54-1.1 2.09-1.08 3.07.21 4.63 2.98 4.69 3.1 1.57 2.69 3.96 2.41 5.51 1.84a7 7 0 01.66-1.88c-4.95-.89-10.57-3.53-10.57-13.12q0-3.96 2.44-6.93c-.36-1.21-.77-3.67.45-6.76l.17-.44.45-.14c.42-.14 2.69-.62 7.36 2.43q2.9-.74 6.07-.76 3.19.02 6.09.76c4.67-3.06 6.93-2.56 7.35-2.43l.45.14.17.44c1.23 3.1.81 5.56.45 6.77a10.6 10.6 0 012.44 6.93c0 9.59-5.62 12.22-10.59 13.09.56 1.06.87 2.4.87 3.88l-.01 8.4-2-.01.01-8.39c0-2.44-.94-3.52-1.35-3.87l-1.73-1.5 2.27-.25c5.21-.58 10.53-2.38 10.53-11.34a8.7 8.7 0 00-2.31-6.04l-.43-.47.24-.59c.17-.4.89-2.44-.04-5.29-.76.04-2.57.4-5.58 2.45l-.38.26-.45-.12c-1.86-.52-3.94-.8-6-.81-2.05.01-4.12.29-5.98.81l-.45.12-.38-.26c-3.02-2.04-4.83-2.4-5.59-2.45a7.8 7.8 0 00-.04 5.29l.24.59-.43.47a8.7 8.7 0 00-2.31 6.04c0 8.96 5.31 10.77 10.5 11.36l2.25.26-1.71 1.49c-.37.33-1.03 1.11-1.25 2.73l-.07.55-.51.23c-1.32.59-5.84 2.16-8.55-2.48a5 5 0 00-1.5-1.56 9 9 0 012.07 3.29c.07.19 1.36 3.62 7.28 2.34l1.21-.26.01 3.98.01 3.44z"/><path fill="url(#KpzH_ttTMIjq8dhx1zD2pb)" d="M32 58C17.66 58 6 46.34 6 32S17.66 6 32 6s26 11.66 26 26-11.66 26-26 26m0-50C18.77 8 8 18.77 8 32s10.77 24 24 24 24-10.77 24-24S45.23 8 32 8"/></svg>