<?xml version="1.0" encoding="UTF-8"?>
<svg xmlns="http://www.w3.org/2000/svg" width="48px" height="48px" baseProfile="basic"><path fill="#f7df1e" d="M6 42V6h36v36z"/><path fill="#000001" d="M29.54 32.95c.69 1.12 1.44 2.2 3.04 2.2 1.34 0 2.04-.67 2.04-1.58 0-1.1-.73-1.49-2.2-2.13l-.81-.34c-2.33-.99-3.88-2.23-3.88-4.84 0-2.41 1.84-4.24 4.73-4.24 2.05 0 3.53.71 4.59 2.57l-2.51 1.61c-.55-.99-1.15-1.38-2.08-1.38-.95 0-1.54.6-1.54 1.38 0 .96.6 1.35 1.99 1.95l.81.34c2.73 1.15 4.28 2.35 4.28 5.03 0 2.89-2.28 4.48-5.35 4.48-3 0-4.7-1.5-5.65-3.37zm-11.59.08c.51.91 1.27 1.6 2.38 1.6 1.06 0 1.67-.42 1.67-2.04V22h3.33v11.1c0 3.37-1.95 4.9-4.8 4.9a5.9 5.9 0 01-5.2-3.37z"/></svg>