<?xml version="1.0" encoding="UTF-8"?>
<svg xmlns="http://www.w3.org/2000/svg" viewBox="0 0 80 80"><path fill="#dcd5f2" d="M40 61.5C18.22 61.5.5 51.85.5 40S18.22 18.5 40 18.5 79.5 28.14 79.5 40 61.78 61.5 40 61.5"/><path fill="#8b75a1" d="M40 19c21.5 0 39 9.42 39 21S61.51 61 40 61 1 51.58 1 40s17.5-21 39-21m0-1C17.91 18 0 27.85 0 40s17.91 22 40 22 40-9.85 40-22-17.91-22-40-22"/><path fill="#36404d" d="M25.11 34c1.73 0 3.21.62 4.08 1.71.75.93.98 2.17.67 3.58-.84 3.78-2.47 4.71-8.29 4.71h-4.14l1.75-10zm0-2H17.5L14 52h2l1.06-6h4.51c5.86 0 9.05-.91 10.25-6.28C32.84 35.1 29.44 32 25.11 32m36 2c1.73 0 3.21.62 4.08 1.71.75.93.98 2.17.67 3.58-.84 3.78-2.46 4.71-8.29 4.71h-4.14l1.75-10zm0-2H53.5L50 52h2l1.06-6h4.51c5.86 0 9.05-.91 10.25-6.28C68.84 35.1 65.44 32 61.11 32m-12.04 1.21c-.88-.86-2.43-1.21-4.74-1.21h-5.54L40 26h-2.1L34 46h1.99l2.39-12h5.96c2.34 0 3.09.4 3.33.64.34.34.42 1.23.22 2.36l-1.77 9h2.11l1.63-8.63q.51-2.88-.79-4.16"/></svg>