<?xml version="1.0" encoding="UTF-8"?>
<svg xmlns="http://www.w3.org/2000/svg" width="100px" height="100px"><path fill="#f15b6c" d="M69 82H31a13 13 0 01-13-13V31a13 13 0 0113-13h38a13 13 0 0113 13v38a13 13 0 01-13 13"/><path fill="#1f212b" d="M66.5 78h-33C27.16 78 22 72.84 22 66.5v-33C22 27.16 27.16 22 33.5 22h33q.53 0 1.05.05a.5.5 0 01.45.54.5.5 0 01-.54.45L66.5 23h-33C27.71 23 23 27.71 23 33.5v33C23 72.29 27.71 77 33.5 77h33C72.29 77 77 72.29 77 66.5v-17c0-.28.22-.5.5-.5s.5.22.5.5v17C78 72.84 72.84 78 66.5 78m11-38a.5.5 0 01-.5-.5v-2c0-.28.22-.5.5-.5s.5.22.5.5v2a.5.5 0 01-.5.5m0 7a.5.5 0 01-.5-.5v-4c0-.28.22-.5.5-.5s.5.22.5.5v4a.5.5 0 01-.5.5"/><path fill="#1f212b" d="M69 83H31c-7.72 0-14-6.28-14-14V31c0-7.72 6.28-14 14-14h38c7.72 0 14 6.28 14 14v38c0 7.72-6.28 14-14 14M31 19c-6.62 0-12 5.38-12 12v38c0 6.62 5.38 12 12 12h38c6.62 0 12-5.38 12-12V31c0-6.62-5.38-12-12-12z"/><path fill="#fefdef" d="M61.96 48.41c-3.21.56-7.46.87-11.96.87s-8.75-.31-11.96-.86c-3.59-.63-5.42-1.47-5.9-2.73q-.13.33-.14.71v7.2c0 1.69 1.81 2.72 6.04 3.46 3.21.55 7.46.86 11.96.86s8.75-.31 11.96-.86c4.23-.74 6.04-1.78 6.04-3.46v-7.2q-.01-.38-.14-.72c-.48 1.27-2.31 2.11-5.9 2.73"/><path fill="#fefdef" d="M61.96 59.94c-3.21.55-7.46.86-11.96.86s-8.75-.31-11.96-.86c-3.59-.63-5.42-1.47-5.9-2.73q-.13.32-.14.71v7.2c0 1.69 1.81 2.72 6.04 3.46 3.21.55 7.46.86 11.96.86s8.75-.31 11.96-.86c4.23-.74 6.04-1.77 6.04-3.46v-7.2q-.01-.38-.14-.72c-.48 1.27-2.31 2.11-5.9 2.74m0-28.51A73 73 0 0050 30.56c-4.5 0-8.75.31-11.96.86-4.23.74-6.04 1.78-6.04 3.46v7.2c0 1.69 1.81 2.72 6.04 3.46 3.21.55 7.46.86 11.96.86s8.75-.31 11.96-.86c4.23-.74 6.04-1.77 6.04-3.46v-7.2c0-1.68-1.81-2.72-6.04-3.45M50 32c9.15 0 16.56 1.29 16.56 2.88S59.15 37.76 50 37.76s-16.56-1.29-16.56-2.88S40.85 32 50 32"/><path fill="#f15b6c" d="M56.23 41.52a.86.86 0 01-.86-.81.86.86 0 01.8-.92 56 56 0 005.91-.68c.61-.1 1.43-.25 2.28-.47a.86.86 0 01.43 1.67c-.91.24-1.78.39-2.42.49q-2.66.46-6.09.7-.01.02-.05.02m0 11.52a.86.86 0 01-.86-.81.86.86 0 01.8-.92q3.33-.23 5.91-.68c.61-.1 1.43-.25 2.28-.47a.86.86 0 01.43 1.67c-.91.24-1.78.39-2.42.49a61 61 0 01-6.09.7q-.01.03-.05.02m0 11.52a.86.86 0 01-.86-.81.86.86 0 01.8-.92q3.33-.23 5.91-.68c.61-.1 1.43-.25 2.28-.47a.86.86 0 01.43 1.67c-.91.24-1.78.39-2.42.49a61 61 0 01-6.09.7q-.01.02-.05.02"/></svg>