<?xml version="1.0" standalone="no"?>
<!DOCTYPE svg PUBLIC "-//W3C//DTD SVG 20010904//EN"
 "http://www.w3.org/TR/2001/REC-SVG-20010904/DTD/svg10.dtd">
<svg version="1.0" xmlns="http://www.w3.org/2000/svg"
 width="64.000000pt" height="64.000000pt" viewBox="0 0 64.000000 64.000000"
 preserveAspectRatio="xMidYMid meet">

<g transform="translate(0.000000,64.000000) scale(0.100000,-0.100000)"
fill="#000000" stroke="none">
<path d="M10 350 c0 -132 3 -240 8 -240 4 0 6 90 4 200 l-3 200 146 1 c80 1
165 1 190 1 25 0 81 0 125 -1 l80 -1 0 -103 c0 -103 -8 -131 -36 -120 -8 3
-14 11 -14 19 0 8 -10 14 -25 14 -16 0 -25 -6 -25 -15 0 -15 -11 -19 -38 -16
-23 3 -39 -18 -34 -44 3 -18 0 -25 -12 -25 -21 0 -21 -46 0 -54 11 -4 14 -13
10 -30 -7 -29 12 -47 42 -39 15 3 24 0 28 -11 8 -21 50 -21 58 0 4 11 13 14
30 10 29 -7 47 12 39 42 -3 15 0 24 11 28 21 8 21 54 0 54 -10 0 -15 8 -13 23
1 12 -1 29 -4 37 -4 8 -8 80 -9 160 l-3 145 -277 3 -278 2 0 -240z m460 205
c0 -8 -7 -15 -15 -15 -16 0 -20 12 -8 23 11 12 23 8 23 -8z m63 0 c-5 -15 -53
-15 -53 0 0 9 10 13 28 11 15 -2 26 -7 25 -11z m-33 -260 c0 -15 16 -20 52
-17 11 1 17 -5 16 -16 -3 -36 2 -52 17 -52 21 0 19 -16 -6 -41 -13 -13 -18
-27 -14 -40 5 -16 2 -19 -25 -19 -18 0 -33 -6 -36 -15 -8 -19 -30 -19 -38 0
-3 9 -18 15 -36 15 -27 0 -30 3 -25 19 4 13 -1 27 -14 40 -25 25 -27 41 -6 41
15 0 20 16 17 52 -1 11 5 17 16 16 36 -3 52 2 52 17 0 8 7 15 15 15 8 0 15 -7
15 -15z"/>
<path d="M440 240 c-43 -43 -14 -110 48 -110 56 0 82 70 42 110 -11 11 -31 20
-45 20 -14 0 -34 -9 -45 -20z m80 -10 c11 -11 20 -28 20 -37 0 -23 -30 -53
-53 -53 -26 0 -57 28 -57 52 0 22 34 58 55 58 8 0 24 -9 35 -20z"/>
<path d="M113 393 c9 -2 25 -2 35 0 9 3 1 5 -18 5 -19 0 -27 -2 -17 -5z"/>
<path d="M258 393 c39 -2 105 -2 145 0 39 1 7 3 -73 3 -80 0 -112 -2 -72 -3z"/>
<path d="M158 323 c34 -2 90 -2 125 0 34 2 6 3 -63 3 -69 0 -97 -1 -62 -3z"/>
<path d="M378 323 c12 -2 30 -2 40 0 9 3 -1 5 -23 4 -22 0 -30 -2 -17 -4z"/>
<path d="M143 253 c26 -2 67 -2 90 0 23 2 2 3 -48 3 -49 0 -68 -1 -42 -3z"/>
<path d="M313 253 c9 -2 25 -2 35 0 9 3 1 5 -18 5 -19 0 -27 -2 -17 -5z"/>
</g>
</svg>
