<?xml version="1.0" encoding="UTF-8"?>
<svg xmlns="http://www.w3.org/2000/svg" viewBox="0 0 48 48"><path fill="#0277BD" d="M24.05 5c-1.55.01-2.63.14-3.94.37-3.85.67-4.55 2.08-4.55 4.67V14h9v2H10.87c-2.64 0-4.94 1.24-5.67 4.22a17 17 0 000 9.13C5.85 32.01 7.29 34 9.93 34h3.63v-5.1c0-2.97 2.69-5.9 5.76-5.9h7.24c2.52 0 5-1.86 5-4.38v-8.59c0-2.44-1.76-4.26-4.22-4.67.07 0-1.75-.37-3.29-.36m-4.99 4c.82 0 1.5.68 1.5 1.5 0 .83-.68 1.5-1.5 1.5-.84 0-1.5-.66-1.5-1.5 0-.82.67-1.5 1.5-1.5"/><path fill="#FFC107" d="M23.08 43c1.55-.01 2.63-.14 3.94-.37 3.85-.67 4.55-2.08 4.55-4.67V34h-9v-2h13.69c2.64 0 4.94-1.24 5.67-4.22.83-3.42.86-5.56 0-9.13-.66-2.66-2.1-4.65-4.74-4.65h-3.63v5.1c0 2.97-2.69 5.9-5.76 5.9h-7.24c-2.52 0-5 1.86-5 4.38v8.59c0 2.44 1.76 4.26 4.22 4.67-.06 0 1.76.37 3.3.36m4.98-4c-.82 0-1.5-.68-1.5-1.5 0-.83.68-1.5 1.5-1.5.84 0 1.5.66 1.5 1.5 0 .82-.66 1.5-1.5 1.5"/></svg>