<?xml version="1.0" encoding="UTF-8"?>
<svg xmlns="http://www.w3.org/2000/svg" width="50px" height="50px"><path d="M25 2C12.31 2 2 12.31 2 25s10.31 23 23 23 23-10.31 23-23S37.69 2 25 2m0 2c11.61 0 21 9.39 21 21s-9.39 21-21 21S4 36.61 4 25 13.39 4 25 4m-1.38 6.5C15.77 12.37 6.66 21.91 7.54 29.13c4.27-7.54 7.16-8.56 7.95-8.56q1.2-.01 1.21 1.34v11.22c0 1.39-1.34 1.23-2.24 1.09 3.31 4.94 11.04 5.28 11.04 5.28l3.46-3.76 3.34 2.85c5.08-3.29 8.43-8.86 8.43-9.71-2.51 2.78-4.67 3.28-5.16 3.28-.48 0-1.27-.06-1.27-.73V18.12c0-1.16 3.18-4.95 4.18-6.23-6.61 1.74-9.16 5.04-9.16 5.04s-.89-.66-2.85-.66c.74.62 1.76 1.75 1.76 3.09v12.19s-2.18 1.58-3.46 1.58-2.18-.54-2.18-1.52V17.05s-1.82 1.28-1.82-2.49c0-1.88 2.85-4.06 2.85-4.06"/></svg>