<?xml version="1.0" standalone="no"?>
<!DOCTYPE svg PUBLIC "-//W3C//DTD SVG 20010904//EN"
 "http://www.w3.org/TR/2001/REC-SVG-20010904/DTD/svg10.dtd">
<svg version="1.0" xmlns="http://www.w3.org/2000/svg"
 width="50.000000pt" height="50.000000pt" viewBox="0 0 50.000000 50.000000"
 preserveAspectRatio="xMidYMid meet">

<g transform="translate(0.000000,50.000000) scale(0.100000,-0.100000)"
fill="#000000" stroke="none">
<path d="M427 471 c-2 -11 -36 -35 -78 -57 -62 -33 -77 -46 -94 -81 -14 -30
-24 -41 -35 -36 -64 25 -90 27 -117 7 -58 -42 -115 -185 -99 -248 19 -76 81
-73 195 9 19 14 41 25 50 25 9 0 43 -18 75 -40 33 -22 70 -43 83 -46 64 -16
101 30 89 113 -7 56 -62 159 -99 187 -28 20 -56 18 -121 -9 -16 -7 -17 -5 -11
16 12 39 36 60 102 90 56 25 83 50 83 78 0 18 -17 12 -23 -8z m-41 -252 c10
-17 -13 -36 -27 -22 -12 12 -4 33 11 33 5 0 12 -5 16 -11z m-236 -14 c0 -8 7
-15 15 -15 8 0 15 -7 15 -15 0 -8 -7 -15 -15 -15 -8 0 -15 -7 -15 -15 0 -8 -7
-15 -15 -15 -8 0 -15 7 -15 15 0 8 -7 15 -15 15 -8 0 -15 7 -15 15 0 8 7 15
15 15 8 0 15 7 15 15 0 8 7 15 15 15 8 0 15 -7 15 -15z m196 -26 c10 -17 -13
-36 -27 -22 -12 12 -4 33 11 33 5 0 12 -5 16 -11z m80 0 c10 -17 -13 -36 -27
-22 -12 12 -4 33 11 33 5 0 12 -5 16 -11z m-40 -40 c10 -17 -13 -36 -27 -22
-12 12 -4 33 11 33 5 0 12 -5 16 -11z"/>
</g>
</svg>
