<?xml version="1.0" standalone="no"?>
<!DOCTYPE svg PUBLIC "-//W3C//DTD SVG 20010904//EN"
 "http://www.w3.org/TR/2001/REC-SVG-20010904/DTD/svg10.dtd">
<svg version="1.0" xmlns="http://www.w3.org/2000/svg"
 width="96.000000pt" height="96.000000pt" viewBox="0 0 96.000000 96.000000"
 preserveAspectRatio="xMidYMid meet">

<g transform="translate(0.000000,96.000000) scale(0.100000,-0.100000)"
fill="#000000" stroke="none">
<path d="M96 784 c-11 -10 -16 -34 -16 -70 l0 -54 400 0 400 0 0 54 c0 91 22
86 -400 86 -322 0 -371 -2 -384 -16z m79 -54 c0 -18 -6 -26 -23 -28 -13 -2
-25 3 -28 12 -10 26 4 48 28 44 17 -2 23 -10 23 -28z m100 0 c0 -18 -6 -26
-23 -28 -24 -4 -38 18 -28 44 3 9 15 14 28 12 17 -2 23 -10 23 -28z m565 0 l0
-30 -260 0 -260 0 0 30 0 30 260 0 260 0 0 -30z"/>
<path d="M144 587 c-3 -8 -4 -43 -2 -78 l3 -64 205 0 205 0 0 75 0 75 -203 3
c-164 2 -203 0 -208 -11z"/>
<path d="M625 588 c-3 -8 -4 -92 -3 -188 l3 -175 95 0 95 0 0 185 0 185 -93 3
c-69 2 -94 -1 -97 -10z"/>
<path d="M144 367 c-3 -8 -4 -43 -2 -78 l3 -64 205 0 205 0 0 75 0 75 -203 3
c-164 2 -203 0 -208 -11z"/>
</g>
</svg>
